<svg width="725" height="266" viewBox="0 0 725 266" fill="none" xmlns="http://www.w3.org/2000/svg">
<g clip-path="url(#clip0_229_197)">
<path d="M0 98.2239L32.292 152.77L45.1836 140.467L10.0372 88.0219L0 98.2239Z" fill="url(#paint0_linear_229_197)"/>
<path d="M479.461 55.355L478.213 62.5451L493.658 57.5582L491.733 48.7507L479.461 55.355Z" fill="#0071B9"/>
<path d="M389.47 6.24966L339.773 63.2758L354.235 59.1138L401.551 0L389.47 6.24966Z" fill="url(#paint1_linear_229_197)"/>
<path d="M655.336 84.2197L667.534 77.7148L664.049 108.281L655.336 84.2197Z" fill="#1D2C5E"/>
<path d="M579.517 103.821L590.359 106.043L604.199 99.3201L592.188 94.8358L579.517 103.821Z" fill="#1D2C5E"/>
<path d="M205.68 71.3658L207.414 106.787L222.548 100.669L218.018 64.7426L205.68 71.3658Z" fill="url(#paint2_linear_229_197)"/>
<path d="M591.251 60.7957L579.071 67.3731L579.517 103.82L591.777 97.5332L595.625 79.8912L591.251 60.7957Z" fill="url(#paint3_linear_229_197)"/>
<path d="M589.578 106.145L576.166 225.361L597.607 221.129L601.806 99.7152L589.578 106.145Z" fill="#312370"/>
<path d="M615.834 231.076L616.215 247.243L657.374 260.368L669.623 253.871L629.238 222.564L588.329 218.969L576.166 225.361L615.834 231.076Z" fill="#21386E"/>
<path d="M463.149 202.641L473.264 197.189L479.711 209.108L489.243 203.866L491.142 219.579L550.979 230.198L562.936 223.617L480.425 173.311L421.894 183.349L410.476 194.207L463.149 202.641Z" fill="#21386E"/>
<path d="M444.095 55.9621L432.116 62.5584L410.476 194.207L422.597 187.906L443.37 113.988L444.095 55.9621Z" fill="url(#paint4_linear_229_197)"/>
<path d="M348.508 73.6068L338.964 78.6931L339.767 81.877L362.478 67.4405L352.554 56.7844L339.773 63.2758L348.508 73.6068Z" fill="#1D2C5E"/>
<path d="M374.6 229.115L277.02 180.748L289.27 171.481L386.742 222.553L374.6 229.115Z" fill="#21386E"/>
<path d="M286.19 49.1078L271.402 77.1668L287.027 72.4325L298.303 42.533L286.19 49.1078Z" fill="#1D2C5E"/>
<path d="M152.07 165.025L139.595 173.593C139.595 173.593 142.242 187.522 145.655 197.211C149.087 206.934 157.255 214.745 157.255 214.745C162.502 219.877 168.933 223.612 176.108 225.708C189.907 229.681 205.481 227.091 218.851 218.561C222.347 216.347 227.091 212.803 230.008 210.006C216.866 217.986 152.07 165.025 152.07 165.025Z" fill="url(#paint5_linear_229_197)"/>
<path d="M218.832 103.898L230.217 229.579L276.735 222.693L289.181 216.167L231.452 96.3645L219.576 100.368L207.414 106.787L218.832 103.898Z" fill="#1D2C5E"/>
<path d="M44.4398 147.552L96.4143 265.5L145.792 249.562L157.849 241.453L55.3605 134.153L42.536 141.842L32.2921 152.77L44.4398 147.552Z" fill="url(#paint6_linear_229_197)"/>
<path d="M559.542 203.2L560.24 208.99C564.493 208.512 568.961 207.961 572.785 206.599C577.242 205.073 586.925 200.758 590.606 197.579C589.226 198.081 566.539 203.966 559.542 203.2Z" fill="#1D2C5E"/>
<path d="M384.846 173.083L386.699 182.406C396.693 180.918 405.272 177.218 413.707 172.145C418.999 168.991 424.81 164.232 426.644 162.964C425.35 163.791 384.846 173.083 384.846 173.083Z" fill="#1D2C5E"/>
<path d="M109.926 254.317L106.067 245.738L56.7889 135.687L55.7766 133.43L53.5372 134.464L52.0415 135.152L43.269 139.462C41.9747 137.291 39.8266 133.653 38.3336 131.13L18.4982 97.587L13.3104 88.8305L21.8922 83.3896C30.0096 78.2094 39.1768 73.424 49.1496 69.1627C69.0065 60.699 89.2743 56.2227 107.756 56.2227C113.836 56.2227 119.719 56.7144 125.245 57.6763C134.458 58.7269 142.978 61.7523 150.016 66.4436C160.504 72.3117 168.761 81.4148 173.425 92.1838C177.254 101.034 178.001 111.4 175.568 122.153L174.14 128.47L179.384 124.665C182.917 122.099 186.757 119.907 190.796 118.147C197.777 115.194 205 113.687 212.237 113.687C219.087 113.687 225.564 115.044 231.49 117.712L235.311 119.426L234.927 115.253L233.265 97.2216L232.996 94.3628L230.214 95.0856L221.866 97.2512L220.403 66.5483L281.555 46.9987L281.061 70.8608L285.666 72.043L299.022 46.4318L339.023 81.9307L340.691 83.4165L342.318 81.885C347.799 76.7316 354.294 72.5965 361.622 69.5952L364.683 68.3432L362.586 65.7826L355.373 56.9858L401.298 4.01685L425.349 39.9268L388.533 59.7291L380.356 64.1302L389.639 64.3263C407.093 64.6944 422.549 72.0833 433.153 85.128L436.987 89.8596L439.457 92.8985L435.354 97.2566L432.618 100.164L423.419 109.982L421.708 111.806L423.558 113.477L432.18 121.245L435.515 124.246L436.23 119.818L439.538 99.3255L440.384 94.0646L440.411 94.0941L441.281 88.7204L446.219 58.4662H490.304H492.372L492.721 56.4269L493.583 51.2466H533.283L542.901 112.026L543.527 115.963L546.749 113.622C550.645 110.79 554.95 108.461 559.547 106.701C565.666 104.39 571.966 103.211 578.255 103.211C585.741 103.211 593.01 104.941 599.296 108.211C599.462 108.332 599.698 108.488 600.021 108.617L603.004 109.815L603.356 106.612L604.075 99.9891L604.312 97.8181L602.177 97.3425L594.127 95.5423L593.735 63.8588L655.11 77.3764L659.72 100.175L664.487 100.269L669.242 80.649L720.422 93.1027L668.12 250.83L630.694 239.069L630.428 224.542L630.39 222.459L628.325 222.169L590.98 216.895L593.093 197.901L593.595 193.382L589.554 195.454C587.639 196.429 585.786 197.248 584.036 197.893C577.93 200.204 571.676 201.373 565.449 201.373C563.647 201.373 561.837 201.273 560.076 201.074L556.886 200.717L557.385 203.888L560.014 220.592L505.529 210.976L502.675 186.187L501.756 178.241L498.086 185.343L491.813 197.447L480.264 176.113L476.792 169.705L475.697 176.906L473.181 193.42L425.427 185.899L429.13 163.235L429.976 158.039L425.462 160.739C417.646 165.428 408.669 168.956 398.028 171.527C394.309 172.435 390.423 173.064 386.468 173.392L384.228 173.58V175.829V218.598L290.185 172.091L286.652 170.347L286.654 174.289L286.719 214.065L244.671 220.264L242.904 201.163L242.427 196.053L238.761 199.648C233.206 205.089 226.946 209.307 220.161 212.187C213.22 215.14 206.058 216.634 198.881 216.634C191.714 216.634 184.98 215.135 178.863 212.203C167.531 206.749 159.358 196.853 155.851 184.368C154.181 178.502 153.727 172.309 154.503 165.952L155.333 159.181L150.397 163.883C146.917 167.188 143.169 170.345 139.248 173.244L137.919 174.225L138.338 175.823L152.502 230.227L155.005 239.881L145.521 242.898L118.852 251.443L109.926 254.317V254.317ZM121.897 108.27C120.522 108.27 119.101 108.396 117.67 108.654L115.855 109.004L113.175 109.519L113.983 112.131L114.51 113.829L122.136 138.798L122.898 141.198L124.031 144.798L126.851 142.288L128.722 140.62C136.115 133.973 138.706 127.223 137.146 118.711C136.163 113.603 132.21 111.059 129.939 109.995C127.565 108.85 124.848 108.27 121.897 108.27V108.27ZM326.333 109.09L321.567 113.732L309.014 125.939L306.28 128.596L309.838 129.972L323.302 135.171L327.437 136.764L326.583 132.417C325.471 126.801 325.181 121.18 325.702 115.713L326.333 109.09ZM381.154 95.2065C375.947 95.2065 370.91 97.4473 367.331 101.349C361.901 107.281 360.846 116.032 364.707 123.12L365.73 125.041L367.376 128.113L369.694 125.517L371.184 123.865L389.599 102.826L391.046 101.161L393.369 98.4898L390.055 97.2619L387.99 96.4989C385.823 95.6498 383.503 95.2065 381.154 95.2065V95.2065Z" fill="#FFCB05"/>
<path d="M409.324 126.369C409.147 126.525 408.983 126.723 408.844 126.928C409.029 126.758 409.209 126.611 409.4 126.455L409.324 126.369Z" fill="#7D7F68"/>
<path d="M425.202 111.653L434.399 101.835L431.251 105.177L431.343 104.756L428.561 107.692L419.372 117.481L427.981 125.23L429.541 115.578L433.827 119.418L425.202 111.653Z" fill="#7D7F68"/>
<path d="M425.202 111.653L433.827 119.418L437.129 98.9277L434.399 101.835L425.202 111.653Z" fill="#7D7F68"/>
<path d="M310.716 127.685L310.856 127.744L310.716 127.685Z" fill="#7D7F68"/>
<path d="M361.633 136.208C362.368 136.952 361.689 136.418 362.513 136.982L368.139 133.013C367.304 132.422 366.477 131.788 365.717 131.079C357.554 123.636 359.675 106.897 364.97 97.7349C351.032 108.987 351.757 126.31 361.633 136.208" fill="#C7A008"/>
<path d="M429.541 145.58C420.25 153.27 409.66 158.284 395.667 161.666C392.609 162.368 389.612 162.878 386.68 163.136C364.471 165.32 345.838 155.116 338.768 138.565C337.888 136.56 337.208 134.532 336.695 132.366C333.425 118.427 336.217 105.97 343.1 96.2061C343.782 95.2604 344.499 94.3549 345.25 93.4333C344.899 93.7342 344.539 93.9922 344.246 94.2743C341.601 96.6307 339.26 99.2127 337.27 102.034C330.38 111.798 327.587 124.262 330.887 138.18C331.392 140.346 332.061 142.404 332.923 144.363C339.996 160.952 358.633 171.151 380.824 168.983C383.78 168.698 386.766 168.209 389.827 167.47C403.836 164.087 414.418 159.095 423.709 151.405C425.978 149.538 428.166 147.501 430.29 145.274L430.094 145.086C429.882 145.268 429.724 145.427 429.541 145.58" fill="#C7A008"/>
<path d="M273.024 103.442L297.838 68.55L296.831 67.6204L272.89 101.271L273.024 103.442Z" fill="#C7A008"/>
<path d="M437.129 98.9277L433.827 119.418L429.541 115.578L427.981 125.229L419.372 117.481L428.561 107.692L431.343 104.756L431.251 105.177L434.399 101.835L437.129 98.9277Z" fill="#C7A008"/>
<path d="M406.467 41.4556L415.156 37.7262L399.273 17.3302L394.07 24.6035L406.467 41.4556Z" fill="#C7A008"/>
<path d="M165.904 91.985C125.798 43.0974 53.5318 69.375 27.558 92.2429L28.573 93.9974C34.5449 90.569 40.8417 87.4683 47.466 84.6874C73.2653 73.6605 97.8616 70.4282 117.582 73.8809C124.552 74.6815 131.937 76.7504 138.362 81.0548C147.258 86.0389 154.001 93.1296 157.943 102.217C164.937 118.311 158.775 139.712 142.301 157.628C162.964 138.656 177.101 120.503 165.904 91.985Z" fill="#C7A008"/>
<path d="M247.727 148.941C247.539 148.055 247.351 147.154 247.064 146.287C244.806 138.159 239.953 131.67 233.592 127.352C223.297 120.356 208.926 118.918 194.603 124.969C187.069 128.228 180.517 133.244 175.337 139.236C179.319 135.808 183.871 132.952 188.787 130.824C203.078 124.754 217.449 126.189 227.779 133.177C234.14 137.5 238.952 143.987 241.258 152.104C241.514 152.974 241.712 153.888 241.911 154.804C242.523 157.894 242.808 161.019 242.69 164.219C242.392 173.574 238.925 182.995 233.16 191.039C232.231 192.313 231.253 193.5 230.241 194.677C233.522 191.842 236.452 188.707 238.955 185.195C244.744 177.202 248.202 167.763 248.508 158.351C248.637 155.21 248.377 152.034 247.727 148.941Z" fill="#C7A008"/>
<path d="M208.236 137.009C208.18 137.097 214.055 131.184 213.988 131.184C206.638 130.904 203.532 137.839 203.277 138.384C204.786 137.654 206.451 137.178 208.236 137.009" fill="#C7A008"/>
<path d="M222.078 145.486C222.376 146.483 222.532 147.474 222.532 148.56C222.532 150.091 222.191 151.561 221.571 152.915C222.747 152.3 231.245 148.175 227.951 139.438C228.128 139.706 221.866 145.459 222.078 145.486Z" fill="#C7A008"/>
<path d="M188.648 150.349C188.648 146.754 194.799 138.033 196.717 135.123C187.002 141.303 182.818 149.643 182.818 156.212C182.818 167.467 192.702 176.519 204.52 176.519C210.11 176.519 220.349 173.561 227.046 162.717C223.536 165.028 214.616 170.557 209.936 170.557C198.121 170.554 188.648 161.666 188.648 150.349Z" fill="#C7A008"/>
<path d="M271.813 160.651L271.966 206.206L279.192 206.62L277.764 154.688L271.813 160.651Z" fill="#C7A008"/>
<path d="M230.338 73.9185L230.486 77.9649L264.73 67.7629L267.267 111.398L272.981 103.385L271.762 59.5975L230.338 73.9185Z" fill="#C7A008"/>
<path d="M333.854 89.5427L301.689 60.0032L297.838 68.5502L326.148 95.1636L333.854 89.5427Z" fill="#C7A008"/>
<path d="M328.965 144.591L291.2 132.097L285.698 137.912L323.32 152.977C327.587 161.022 334.053 167.913 342.195 172.951C350.076 177.774 359.082 180.663 368.62 181.579V200.172L374.452 203.084L376.297 175.152L328.965 144.591V144.591Z" fill="#C7A008"/>
<path d="M389.607 139.336C398.882 137.097 404.23 132.256 408.836 126.928C405.38 129.765 388.055 133.543 385.144 134.529L379.438 140.609C382.045 140.84 386.406 140.136 389.607 139.336Z" fill="#C7A008"/>
<path d="M372.739 75.0792C355.637 77.3201 346.725 91.6867 345.25 93.4359C351.566 88.0971 359.482 84.134 368.397 82.0221C389.559 76.9009 408.218 83.3575 419.751 97.6247L426.888 91.5793C415.465 77.5592 393.895 69.9742 372.739 75.0792" fill="#C7A008"/>
<path d="M430.097 145.086C432.159 143.35 435.824 141.595 437.774 139.551L414.875 119.077C413.121 121.175 411.532 124.633 409.391 126.452L430.097 145.086V145.086Z" fill="#C7A008"/>
<path d="M547.611 199.951C523.587 180.192 525.023 137.823 536.817 124.381L526.232 57.9746L503.08 60.9651L502.049 66.8144H519.567L528.844 127.065C517.04 140.55 511.337 158.617 515.282 175.157C518.335 187.938 526.181 198.283 537.475 204.267C538.61 204.89 539.784 205.433 540.984 205.946L541.135 206.83L548.022 207.918C548.022 207.915 548.739 200.526 547.611 199.951V199.951Z" fill="#C7A008"/>
<path d="M455.273 67.7466L454.277 73.5986H480.683L488.462 116.269L494.321 110.347L488.161 65.3015L455.273 67.7466Z" fill="#C7A008"/>
<path d="M500.478 150.583L491.953 172.621L494.063 178.354L506.257 144.793L500.478 150.583Z" fill="#C7A008"/>
<path d="M475.16 136.703L469.29 142.568L462.998 182.371L469.024 184.674L475.16 136.703Z" fill="#C7A008"/>
<path d="M593.756 123.988C597.212 126.458 600.16 129.582 602.378 133.298C604.129 136.149 605.453 139.341 606.299 142.845C609.175 154.809 605.735 167.749 598.133 178.131C597.368 179.185 596.525 180.203 595.719 181.203C598.807 178.545 636.314 150.862 599.669 114.504C559.364 101.209 544.107 127.522 542.681 129.19C546.94 125.568 551.854 122.572 557.176 120.536C570.817 115.366 584.237 117.158 593.756 123.988" fill="#C7A008"/>
<path d="M573.437 126.611C573.55 126.866 579.224 120.694 579.339 120.694C572.167 120.99 568.722 124.453 569.077 126.052C568.647 126.673 568.298 127.288 568.024 127.968C569.554 127.205 572.385 126.619 573.437 126.611Z" fill="#C7A008"/>
<path d="M586.923 135.631C587.18 136.592 587.304 137.6 587.282 138.683C587.218 140.069 586.858 141.34 586.332 142.525C587.422 142.033 596.114 139.333 592.795 129.762C592.881 130.034 586.829 135.636 586.923 135.631" fill="#C7A008"/>
<path d="M567.882 166.019C575.994 166.365 584.965 161.379 591.398 152.566C574.89 155.954 557.536 128.446 559.276 125.753C553.038 130.278 547.517 139.005 547.265 145.104C546.835 156.413 556.037 165.546 567.882 166.019Z" fill="#C7A008"/>
<path d="M658.348 237.691L662.218 240.281L709.445 98.4548L674.1 90.2813L673.656 98.5891L702.168 104.919L658.348 237.691Z" fill="#C7A008"/>
<path d="M602.263 75.0792L602.572 83.0001L640.151 90.5528L654.619 159.21L660.475 153.305L646.692 83.9405L602.263 75.0792Z" fill="#C7A008"/>
<path d="M631.182 153.318L620.836 211.87L626.795 213.802L637.066 147.552L631.182 153.318Z" fill="#C7A008"/>
<path d="M143.51 233.354L125.932 169.587L119.499 174.09L135.79 235.181L143.51 233.354Z" fill="#C7A008"/>
<path d="M138.948 137.465C134.893 141.77 125.906 150.134 120.785 153.433L117.676 143.444L110.866 121.54L106.537 106.712L102.314 112.136L106.626 126.987L113.436 148.874L116.532 158.893C123.543 154.374 133.741 145.891 138.948 137.465" fill="#C7A008"/>
<path d="M388.004 99.7606C382.456 97.6246 374.599 98.2667 370.357 102.912C369.371 103.99 367.454 106.738 366.847 107.966C370.953 104.699 378.265 103.992 383.058 105.723L388.004 99.7606V99.7606Z" fill="#7D7F68"/>
<path d="M133.875 119.547C133.252 116.269 130.044 113.665 128.47 112.942C125.656 111.583 120.788 111.371 117.232 112.018C117.872 114.227 118.605 116.817 118.916 117.878C120.358 118.08 122.726 118.51 123.97 119.077C125.53 119.829 128.258 121.602 128.892 124.902C129.74 129.305 129.517 133.422 127.683 136.764C132.713 131.826 135.153 126.455 133.875 119.547" fill="#7D7F68"/>
<path d="M142.683 119.456C140.269 106.494 123.331 99.3498 106.537 108.515L110.866 123.349L117.676 145.271L120.782 155.255C133.381 147.149 146.045 137.409 142.683 119.456ZM126.002 139.387C124.168 133.398 120.146 120.466 120.146 120.466C120.165 120.525 119.354 117.698 118.393 114.463C121.953 113.827 125.374 114.085 128.188 115.439C129.762 116.188 132.527 117.938 133.132 121.253C134.522 128.707 132.012 134.027 126.002 139.387V139.387Z" fill="#3C5AA6"/>
<path d="M396.795 98.8902C387.408 90.2734 372.816 90.9424 364.253 100.328C355.639 109.697 356.316 124.305 365.717 132.887C366.482 133.626 367.309 134.231 368.142 134.824L398.422 100.51C397.888 99.9515 397.351 99.3953 396.795 98.8902V98.8902ZM368.203 123.026C365.242 117.585 365.84 110.677 370.268 105.836C374.527 101.193 381.052 99.8709 386.616 102.018L368.203 123.026V123.026Z" fill="#3567B0"/>
<path d="M437.255 95.1231L420.486 111.29L436.418 125.606L437.255 95.1231Z" fill="#1E2D5F"/>
<path d="M592.749 129.762C593.004 130.781 593.136 131.788 593.104 132.86C592.824 139.271 586.802 144.22 579.621 143.885C572.447 143.637 566.81 138.188 567.092 131.794C567.334 125.799 572.672 121.054 579.264 120.751C578.013 120.468 576.705 120.321 575.341 120.272C563.33 119.754 553.513 128.266 553.1 138.863C552.638 150.196 561.717 159.436 573.537 159.949C585.564 160.43 595.375 151.889 595.853 140.609C595.993 136.7 594.838 132.952 592.749 129.762Z" fill="#3466AF"/>
<path d="M228.383 142.705C228.383 149.143 222.532 154.301 215.365 154.301C208.18 154.301 202.35 149.14 202.35 142.705C202.35 136.705 207.479 131.759 214.052 131.184C212.793 130.955 211.483 130.823 210.129 130.823C198.121 130.823 188.648 139.736 188.648 150.349C188.648 161.674 198.124 170.557 209.936 170.557C221.955 170.557 231.42 161.669 231.42 150.349C231.42 146.429 230.126 142.734 227.9 139.693C228.2 140.609 228.383 141.625 228.383 142.705" fill="url(#paint7_linear_229_197)"/>
<path d="M667.454 77.6827L662.121 99.6747L657.196 75.3236L591.251 60.7984L591.713 97.4903L601.651 99.7204L600.934 106.338C600.805 106.287 600.724 106.209 600.654 106.153C588.335 99.6478 573.062 98.9815 558.688 104.414C553.865 106.26 549.389 108.686 545.329 111.637L535.38 48.7962H491.523L490.315 56.0211H444.154L438.883 88.3254L435.054 83.5938C423.867 69.8424 407.651 62.2681 389.688 61.892L428.88 40.8135L401.551 0.00262451L352.173 56.9347L360.696 67.3329C352.976 70.4899 346.231 74.8427 340.643 80.1009L298.305 42.5143L283.502 70.9037L284.071 43.6212L217.879 64.7803L219.576 100.365L230.837 97.4419L232.502 115.476C219.635 109.694 204.168 109.836 189.824 115.901C185.573 117.755 181.61 120.033 177.958 122.682C180.439 111.696 179.851 100.865 175.668 91.2057C170.727 79.7919 162.032 70.3583 151.372 64.4069C143.899 59.4254 134.992 56.3221 125.672 55.2661C102.767 51.26 75.2631 55.3736 48.1937 66.9137C38.2424 71.1616 28.9598 75.9819 20.5874 81.318L10.005 88.0325L16.3958 98.831L36.2286 132.371C36.2286 132.371 42.2971 142.648 42.3374 142.643L53.062 137.369L54.5576 136.681L103.839 246.738L108.592 257.316L119.596 253.769L146.259 245.222L157.945 241.506L154.863 229.604L140.701 175.208C144.774 172.191 148.577 168.991 152.086 165.64C151.294 172.14 151.71 178.72 153.499 185.018C157.202 198.205 165.832 208.622 177.808 214.393C190.742 220.613 206.523 220.629 221.122 214.434C228.445 211.325 234.956 206.789 240.474 201.391L242.486 223.056L289.181 216.175L289.109 174.278L386.68 222.532V175.81C390.595 175.482 394.591 174.864 398.608 173.878C409.354 171.28 418.551 167.717 426.722 162.819L422.624 187.911L475.232 196.195L478.119 177.253L491.859 202.652L500.258 186.458L503.327 213.047L562.973 223.569L559.81 203.49C567.976 204.414 576.582 203.318 584.895 200.18C586.863 199.452 588.807 198.565 590.668 197.614L588.292 218.977L627.99 224.582L628.285 240.872L669.68 253.874L723.574 91.332L667.454 77.6827V77.6827ZM434.399 101.838L437.135 98.9277L433.829 119.42L425.207 111.65L434.399 101.838ZM399.443 18.1256L413.894 37.7692L372.578 58.2647L369.723 53.9254L399.443 18.1256V18.1256ZM125.852 169.603L142.336 232.892L115.656 241.42L60.9081 119.077C57.9302 120.643 52.431 123.271 47.3801 125.748L27.5554 92.2374C35.4391 87.1996 44.0854 82.734 53.2822 78.8461C79.0922 67.8622 103.718 64.5842 123.414 68.0664C130.382 68.8509 137.758 70.9064 144.219 75.1973C153.082 80.1922 159.863 87.3017 163.772 96.3564C173.307 118.405 157.379 150.134 125.852 169.603V169.603ZM248.514 158.34C248.208 167.763 244.749 177.204 238.96 185.192C233.453 192.917 225.76 199.293 216.708 203.192C193.562 213.004 170.415 203.192 164.231 181.202C158.241 159.941 172.179 134.631 194.606 124.963C208.929 118.913 223.3 120.347 233.595 127.347C239.954 131.662 244.803 138.151 247.067 146.281C247.351 147.144 247.539 148.049 247.73 148.936C248.377 152.034 248.637 155.21 248.514 158.34V158.34ZM374.452 203.084L277.637 154.632L277.809 205.398L252.765 208.815L251.019 187.89C258.753 174.622 261.58 158.987 257.544 144.65C255.329 136.77 251.237 129.929 245.676 124.448L242.083 81.7828L230.837 84.7008L230.341 73.913L270.559 61.9296L273.024 103.436L302.653 61.7818L331.618 89.384L291.112 132.084L329.166 147.146C333.417 155.207 339.902 162.056 348.038 167.102C355.903 171.96 364.914 174.832 374.446 175.775L374.452 203.084ZM324.182 132.887L310.716 127.688L323.269 115.479C322.732 121.084 323.009 126.944 324.182 132.887ZM429.541 145.58C420.25 153.27 409.66 158.283 395.667 161.666C392.609 162.367 389.612 162.878 386.68 163.136C364.471 165.32 345.838 155.116 338.768 138.564C337.888 136.56 337.208 134.531 336.695 132.366C333.425 118.426 336.217 105.967 343.1 96.2059C345.081 93.3579 347.433 90.7624 350.076 88.4248C356.558 82.6373 364.833 78.4296 374.242 76.1673C395.399 71.0622 414.031 77.5241 425.454 91.5496L385.139 134.488C387.872 135.004 392.22 134.287 395.428 133.518C405.031 131.176 410.404 126.076 415.138 120.519L431.249 135.023L436.13 139.435C434.015 141.625 431.791 143.691 429.541 145.58V145.58ZM515.072 202.883L506.302 144.752L493.9 176.82L475.329 136.74H475.119L467.781 183.156L436.829 177.766L441.181 151.864C442.349 150.766 443.499 149.664 444.629 148.5L454.661 138.164L444.911 129.426L455.27 67.744H486.499L494.316 110.444L503.075 60.9596H525.413L534.682 121.248C522.886 134.693 517.156 152.767 521.098 169.302C524.145 182.121 532.018 192.444 543.304 198.474C544.44 199.046 545.616 199.613 546.83 200.102L548.011 207.918L515.072 202.883V202.883ZM592.204 183.943C588.791 186.375 585.035 188.441 580.996 189.932C573.024 192.971 565.095 193.602 558.03 192.197C553.105 191.224 548.616 189.303 544.709 186.522C538.495 182.025 533.92 175.383 531.903 167.043C529.551 157.023 531.718 146.324 537.104 136.952C539.789 132.371 543.234 128.067 547.311 124.356C551.857 120.278 557.128 116.938 562.992 114.681C576.641 109.587 590.102 111.344 599.578 118.16C603.063 120.632 605.955 123.779 608.235 127.435C609.964 130.324 611.307 133.508 612.12 136.985C615.023 149.016 611.567 161.903 603.981 172.285C600.732 176.71 596.772 180.686 592.204 183.943V183.943ZM661.898 238.734L639.01 231.912L637.015 147.474L625.503 212.612L600.534 208.625L602.322 189.87C618.626 176.084 627.27 154.336 622.533 134.628C620.452 125.901 615.968 118.303 609.647 112.526L611.755 90.4077L602.314 87.8928L602.945 76.084L645.964 84.7357L660.429 153.374L675.265 91.8371L707.992 99.0728L661.898 238.734V238.734Z" fill="url(#paint8_linear_229_197)"/>
<path d="M680.707 246.736V240.362H678.327V239.509H684.052V240.362H681.663V246.736H680.707Z" fill="black"/>
<path d="M685.008 246.736V239.509H686.447L688.156 244.626C688.314 245.103 688.429 245.459 688.501 245.696C688.583 245.433 688.711 245.047 688.886 244.537L690.615 239.509H691.901V246.736H690.979V240.687L688.881 246.736H688.018L685.929 240.584V246.736H685.008Z" fill="black"/>
</g>
<defs>
<linearGradient id="paint0_linear_229_197" x1="35.713" y1="143.812" x2="8.78847" y2="93.6658" gradientUnits="userSpaceOnUse">
<stop stop-color="#0070B6"/>
<stop offset="1" stop-color="#1D2C5E"/>
</linearGradient>
<linearGradient id="paint1_linear_229_197" x1="363.778" y1="41.3433" x2="397.943" y2="4.75889" gradientUnits="userSpaceOnUse">
<stop stop-color="#0070B6"/>
<stop offset="1" stop-color="#1D2C5E"/>
</linearGradient>
<linearGradient id="paint2_linear_229_197" x1="214.82" y1="102.37" x2="210.744" y2="68.1441" gradientUnits="userSpaceOnUse">
<stop stop-color="#0070B6"/>
<stop offset="1" stop-color="#1D2C5E"/>
</linearGradient>
<linearGradient id="paint3_linear_229_197" x1="587.778" y1="95.7813" x2="586.15" y2="64.8879" gradientUnits="userSpaceOnUse">
<stop stop-color="#125D9E"/>
<stop offset="1" stop-color="#1D2C5E"/>
</linearGradient>
<linearGradient id="paint4_linear_229_197" x1="473.828" y1="51.2512" x2="437.966" y2="108.268" gradientUnits="userSpaceOnUse">
<stop stop-color="#125D9E"/>
<stop offset="1" stop-color="#1D2C5E"/>
</linearGradient>
<linearGradient id="paint5_linear_229_197" x1="156.735" y1="142.736" x2="181.189" y2="190.8" gradientUnits="userSpaceOnUse">
<stop stop-color="#105FA1"/>
<stop offset="1" stop-color="#1D2C5E"/>
</linearGradient>
<linearGradient id="paint6_linear_229_197" x1="64.5551" y1="126.326" x2="92.8586" y2="191.898" gradientUnits="userSpaceOnUse">
<stop stop-color="#105FA1"/>
<stop offset="1" stop-color="#1D2C5E"/>
</linearGradient>
<linearGradient id="paint7_linear_229_197" x1="188.648" y1="150.689" x2="231.42" y2="150.689" gradientUnits="userSpaceOnUse">
<stop stop-color="#3C5AA6"/>
<stop offset="0.9331" stop-color="#2B73B9"/>
<stop offset="1" stop-color="#2A75BB"/>
</linearGradient>
<linearGradient id="paint8_linear_229_197" x1="10.0068" y1="128.659" x2="723.577" y2="128.659" gradientUnits="userSpaceOnUse">
<stop stop-color="#3C5AA6"/>
<stop offset="0.9331" stop-color="#2B73B9"/>
<stop offset="1" stop-color="#2A75BB"/>
</linearGradient>
<clipPath id="clip0_229_197">
<rect width="725" height="266" fill="white"/>
</clipPath>
</defs>
</svg>
